<mxfile host="Electron" modified="2024-02-25T23:08:33.309Z" agent="Mozilla/5.0 (Macintosh; Intel Mac OS X 10_15_7) AppleWebKit/537.36 (KHTML, like Gecko) draw.io/21.2.8 Chrome/112.0.5615.165 Electron/24.2.0 Safari/537.36" etag="EIRrjt5RSCVSEq2G_17W" version="21.2.8" type="device">
  <diagram name="Page-1" id="M7sGD32pi7TwS8nBrRlK">
    <mxGraphModel dx="1930" dy="763" grid="1" gridSize="10" guides="1" tooltips="1" connect="1" arrows="1" fold="1" page="1" pageScale="1" pageWidth="850" pageHeight="1100" math="0" shadow="0">
      <root>
        <mxCell id="0" />
        <mxCell id="1" parent="0" />
        <mxCell id="9yVKnvQAdQ6b5nyTCGGg-24" value="" style="rounded=0;whiteSpace=wrap;html=1;" vertex="1" parent="1">
          <mxGeometry x="-50" y="220" width="610" height="630" as="geometry" />
        </mxCell>
        <mxCell id="9yVKnvQAdQ6b5nyTCGGg-20" value="" style="rounded=0;whiteSpace=wrap;html=1;dashed=1;" vertex="1" parent="1">
          <mxGeometry x="190" y="327.5" width="180" height="80" as="geometry" />
        </mxCell>
        <mxCell id="9yVKnvQAdQ6b5nyTCGGg-7" value="" style="rounded=0;whiteSpace=wrap;html=1;dashed=1;" vertex="1" parent="1">
          <mxGeometry x="10" y="450" width="500" height="370" as="geometry" />
        </mxCell>
        <mxCell id="9yVKnvQAdQ6b5nyTCGGg-2" value="workload-vn" style="image;aspect=fixed;html=1;points=[];align=center;fontSize=12;image=img/lib/azure2/networking/Virtual_Networks.svg;" vertex="1" parent="1">
          <mxGeometry x="29.75" y="750" width="50.25" height="30" as="geometry" />
        </mxCell>
        <mxCell id="9yVKnvQAdQ6b5nyTCGGg-5" value="firewall-rt-table" style="image;aspect=fixed;html=1;points=[];align=center;fontSize=12;image=img/lib/azure2/networking/Route_Tables.svg;" vertex="1" parent="1">
          <mxGeometry x="300" y="335.64" width="41" height="39.72" as="geometry" />
        </mxCell>
        <mxCell id="9yVKnvQAdQ6b5nyTCGGg-6" value="fw-pip" style="image;aspect=fixed;html=1;points=[];align=center;fontSize=12;image=img/lib/azure2/networking/Public_IP_Addresses.svg;" vertex="1" parent="1">
          <mxGeometry x="215.5" y="343.36" width="40" height="32" as="geometry" />
        </mxCell>
        <mxCell id="9yVKnvQAdQ6b5nyTCGGg-13" value="" style="group" vertex="1" connectable="0" parent="1">
          <mxGeometry x="80" y="470" width="100" height="150" as="geometry" />
        </mxCell>
        <mxCell id="9yVKnvQAdQ6b5nyTCGGg-8" value="" style="rounded=0;whiteSpace=wrap;html=1;dashed=1;" vertex="1" parent="9yVKnvQAdQ6b5nyTCGGg-13">
          <mxGeometry width="100" height="120" as="geometry" />
        </mxCell>
        <mxCell id="9yVKnvQAdQ6b5nyTCGGg-11" value="workload-subnet" style="text;html=1;strokeColor=none;fillColor=none;align=center;verticalAlign=middle;whiteSpace=wrap;rounded=0;" vertex="1" parent="9yVKnvQAdQ6b5nyTCGGg-13">
          <mxGeometry y="120" width="100" height="30" as="geometry" />
        </mxCell>
        <mxCell id="9yVKnvQAdQ6b5nyTCGGg-4" value="vm1" style="image;aspect=fixed;html=1;points=[];align=center;fontSize=12;image=img/lib/azure2/compute/Virtual_Machine.svg;" vertex="1" parent="1">
          <mxGeometry x="95.5" y="486" width="69" height="64" as="geometry" />
        </mxCell>
        <mxCell id="9yVKnvQAdQ6b5nyTCGGg-14" value="" style="group" vertex="1" connectable="0" parent="1">
          <mxGeometry x="230" y="470" width="100" height="150" as="geometry" />
        </mxCell>
        <mxCell id="9yVKnvQAdQ6b5nyTCGGg-15" value="" style="rounded=0;whiteSpace=wrap;html=1;dashed=1;" vertex="1" parent="9yVKnvQAdQ6b5nyTCGGg-14">
          <mxGeometry width="100" height="120" as="geometry" />
        </mxCell>
        <mxCell id="9yVKnvQAdQ6b5nyTCGGg-16" value="AzureFirewallSubnet" style="text;html=1;strokeColor=none;fillColor=none;align=center;verticalAlign=middle;whiteSpace=wrap;rounded=0;" vertex="1" parent="9yVKnvQAdQ6b5nyTCGGg-14">
          <mxGeometry y="120" width="100" height="30" as="geometry" />
        </mxCell>
        <mxCell id="9yVKnvQAdQ6b5nyTCGGg-3" value="test-fw" style="image;aspect=fixed;html=1;points=[];align=center;fontSize=12;image=img/lib/azure2/networking/Firewalls.svg;" vertex="1" parent="9yVKnvQAdQ6b5nyTCGGg-14">
          <mxGeometry x="14.5" y="10" width="71" height="60" as="geometry" />
        </mxCell>
        <mxCell id="9yVKnvQAdQ6b5nyTCGGg-17" value="" style="group;dashed=1;" vertex="1" connectable="0" parent="1">
          <mxGeometry x="360" y="660" width="100" height="150" as="geometry" />
        </mxCell>
        <mxCell id="9yVKnvQAdQ6b5nyTCGGg-18" value="" style="rounded=0;whiteSpace=wrap;html=1;dashed=1;" vertex="1" parent="9yVKnvQAdQ6b5nyTCGGg-17">
          <mxGeometry width="100" height="120" as="geometry" />
        </mxCell>
        <mxCell id="9yVKnvQAdQ6b5nyTCGGg-19" value="AzureFirewallManagementSubnet" style="text;html=1;strokeColor=none;fillColor=none;align=center;verticalAlign=middle;whiteSpace=wrap;rounded=0;" vertex="1" parent="9yVKnvQAdQ6b5nyTCGGg-17">
          <mxGeometry y="120" width="100" height="30" as="geometry" />
        </mxCell>
        <mxCell id="9yVKnvQAdQ6b5nyTCGGg-21" value="test-firewall-rg" style="image;aspect=fixed;html=1;points=[];align=center;fontSize=12;image=img/lib/azure2/general/Resource_Groups.svg;" vertex="1" parent="1">
          <mxGeometry x="-20" y="230" width="39.75" height="37.41" as="geometry" />
        </mxCell>
        <mxCell id="9yVKnvQAdQ6b5nyTCGGg-22" value="eastus" style="image;aspect=fixed;html=1;points=[];align=center;fontSize=12;image=img/lib/azure2/general/Location.svg;" vertex="1" parent="1">
          <mxGeometry x="-10" y="300.59" width="19.75" height="35.05" as="geometry" />
        </mxCell>
        <mxCell id="9yVKnvQAdQ6b5nyTCGGg-23" style="edgeStyle=orthogonalEdgeStyle;rounded=0;orthogonalLoop=1;jettySize=auto;html=1;dashed=1;" edge="1" parent="1" source="9yVKnvQAdQ6b5nyTCGGg-20" target="9yVKnvQAdQ6b5nyTCGGg-3">
          <mxGeometry relative="1" as="geometry" />
        </mxCell>
        <mxCell id="9yVKnvQAdQ6b5nyTCGGg-25" value="" style="image;aspect=fixed;html=1;points=[];align=center;fontSize=12;image=img/lib/azure2/networking/Network_Interfaces.svg;" vertex="1" parent="1">
          <mxGeometry x="-190" y="375.36" width="68" height="60" as="geometry" />
        </mxCell>
        <mxCell id="9yVKnvQAdQ6b5nyTCGGg-26" value="" style="image;aspect=fixed;html=1;points=[];align=center;fontSize=12;image=img/lib/azure2/networking/Network_Security_Groups.svg;" vertex="1" parent="1">
          <mxGeometry x="-184" y="460" width="56.00000000000001" height="68" as="geometry" />
        </mxCell>
        <mxCell id="9yVKnvQAdQ6b5nyTCGGg-27" value="" style="image;aspect=fixed;html=1;points=[];align=center;fontSize=12;image=img/lib/azure2/compute/Disks.svg;" vertex="1" parent="1">
          <mxGeometry x="-184.5" y="550" width="56.99999999999999" height="56.00000000000001" as="geometry" />
        </mxCell>
        <mxCell id="9yVKnvQAdQ6b5nyTCGGg-28" value="" style="image;aspect=fixed;html=1;points=[];align=center;fontSize=12;image=img/lib/azure2/other/SSH_Keys.svg;" vertex="1" parent="1">
          <mxGeometry x="-190" y="640" width="68" height="60" as="geometry" />
        </mxCell>
      </root>
    </mxGraphModel>
  </diagram>
</mxfile>
